<svg xmlns="http://www.w3.org/2000/svg" viewBox="0 0 48 48" width="48" height="48">
  <path d="M33.7 6.1C31.2 4.7 28.1 4 24.8 4c-3.1 0-6 .7-8.3 2-2.5 1.4-4.3 3.5-5.2 6L10 16.5c-.3 1.5-.2 3.1.3 4.5l.5 1.5c-.5 1.8-.5 3.7 0 5.5l1.2 4c.8 2.5 2.5 4.5 4.8 5.8 1.5.8 3.2 1.2 4.9 1.2h.8c1 2 3.1 3 5.3 3 2.1 0 4-1 5.2-2.7.8.1 1.6.2 2.4.2 2.2 0 4.2-.6 5.8-1.8 2-1.5 3.2-3.7 3.3-6.2l.2-5c.1-2-.3-4-1.2-5.8l.1-2.2c.1-2.5-.5-5-1.7-7.2-1.4-2.3-3.5-4-6-4.8" fill="#336791"/>
  <path d="M27.8 38c-1.5 0-2.8-1-3.2-2.5l-.5-2c-.2-.7.1-1.5.7-1.9.6-.4 1.4-.4 2 0l1.5 1c.8.5 1 1.5.5 2.3-.5 1-1.5 1.5-2.5 1.5" fill="white" opacity="0.5"/>
  <ellipse cx="24" cy="20" rx="10" ry="12" fill="none" stroke="white" stroke-width="2"/>
  <path d="M20 16c0 1.1.9 2 2 2s2-.9 2-2-.9-2-2-2-2 .9-2 2" fill="white"/>
</svg>
